<svg xmlns="http://www.w3.org/2000/svg" height="120" width="40"><svg class="spinner-white" xmlns:sketch="http://www.bohemiancoding.com/sketch/ns" xmlns="http://www.w3.org/2000/svg" xmlns:xlink="http://www.w3.org/1999/xlink" width="40" height="40" viewBox="2.5 1.5 40 40" enable-background="new 2.5 1.5 40 40"><defs><style type="text/css">.spinner-white circle, .spinner-white ellipse, .spinner-white line, .spinner-white path, .spinner-white polygon, .spinner-white polyline, .spinner-white rect, .spinner-white text { fill: #FFFFFF !important; }</style></defs><path d="M35.433 32.382l-.675.763c-.223.248-.472.561-.869.9l-.609.556-.337.306-.378.283c-.527.374-1.082.838-1.778 1.201-.342.19-.686.412-1.066.598l-1.204.53c-1.686.659-3.704 1.178-5.96 1.245l-.053.004-.099-.002-.1-.003-.201-.005-.405-.011-.821-.022c-.584-.054-1.206-.145-1.826-.225-.595-.136-1.203-.266-1.812-.432l-.904-.307c-.303-.105-.614-.199-.906-.345-2.392-1.019-4.72-2.635-6.574-4.831-.434-.57-.919-1.115-1.288-1.748-.194-.309-.4-.615-.585-.933l-.505-.989-.25-.5-.205-.521-.409-1.05-.309-1.091-.153-.549-.106-.561-.197-1.13c-.053-.379-.064-.763-.097-1.146l-.038-.577-.01-.144-.005-.072.004-.146.007-.264.028-1.057.007-.265.035-.3.075-.605c.06-.397.087-.823.182-1.197.181-.759.329-1.53.612-2.263.472-1.498 1.216-2.897 2.063-4.214l.684-.957c.218-.327.501-.601.749-.903.494-.61 1.077-1.13 1.643-1.667 2.335-2.064 5.189-3.477 8.116-4.138 1.479-.287 2.932-.474 4.414-.412l.954.025 1.128.138c.771.076 1.438.254 2.116.413 2.699.685 5.084 1.959 6.979 3.499 1.905 1.536 3.359 3.304 4.365 5.033.14.208.259.424.365.642l.324.638.31.617.248.617.449 1.169.31 1.099c.218.693.298 1.335.4 1.889.044.278.099.534.121.771l.049.647.081 1.188c.105 1.535-1.055 2.865-2.591 2.969-1.535.105-2.865-1.055-2.969-2.591l-.005-.107-.007-.272-.022-.846-.007-.463-.063-.551c-.057-.396-.078-.861-.218-1.358l-.178-.797-.285-.85-.152-.454-.205-.453-.21-.472c-.066-.163-.144-.324-.241-.477-.663-1.291-1.664-2.634-3.014-3.837-1.343-1.207-3.068-2.241-5.069-2.851-.502-.142-1.022-.312-1.496-.373l-.736-.146-.951-.071c-1.072-.105-2.234-.007-3.371.15-2.271.403-4.545 1.385-6.471 2.925-.462.406-.953.79-1.363 1.259-.207.231-.451.434-.633.689l-.583.737c-.722 1.021-1.384 2.113-1.818 3.305-.263.58-.403 1.2-.586 1.809-.097.308-.115.594-.181.892l-.085.443-.043.223-.02.264-.078 1.055-.02.263-.003.035v-.047l.002.06.003.119.013.477c.013.317.003.637.032.952l.12.942.063.47.107.461.211.922.302.892.149.446.191.427.382.853c.144.275.307.539.458.809.282.554.677 1.028 1.019 1.535 1.487 1.943 3.422 3.433 5.456 4.419.247.142.514.233.773.337l.775.307c.524.168 1.053.307 1.566.454.513.085 1.002.189 1.515.267l1.571.114c2.007.036 3.833-.342 5.383-.862l1.112-.426c.352-.151.672-.339.991-.497.651-.297 1.172-.699 1.673-1.017l.358-.241.307-.255.561-.462c.356-.265.637-.58.869-.816l.711-.73c.241-.248.638-.253.885-.012.24.234.251.615.032.864z"/></svg></svg>