<?xml version="1.0" encoding="UTF-8" standalone="no"?>
<svg width="208px" height="40px" viewBox="0 0 208 40" version="1.1" xmlns="http://www.w3.org/2000/svg" xmlns:xlink="http://www.w3.org/1999/xlink" xmlns:sketch="http://www.bohemiancoding.com/sketch/ns">
    <!-- Generator: Sketch 3.0.2 (7799) - http://www.bohemiancoding.com/sketch -->
    <title>POORRA</title>
    <description>Created with Sketch.</description>
    <defs></defs>
    <g id="Page-1" stroke="none" stroke-width="1" fill="none" fill-rule="evenodd" sketch:type="MSPage">
        <g id="Apuestas-Móvil" sketch:type="MSArtboardGroup" transform="translate(-21.000000, -32.000000)" fill="#D7DBE0">
            <path d="M21.36,32.704 L35.92,32.704 C38.0853442,32.704 39.9146592,32.9186645 41.408,33.348 C42.9013408,33.7773355 44.114662,34.421329 45.048,35.28 C45.981338,36.138671 46.6626645,37.1933271 47.092,38.444 C47.5213355,39.6946729 47.736,41.1413251 47.736,42.784 L47.736,47.88 C47.736,51.1280162 46.7933428,53.6106581 44.908,55.328 C43.0226572,57.0453419 39.9146883,57.904 35.584,57.904 L28.416,57.904 L28.416,70 L21.36,70 L21.36,32.704 Z M40.68,43.344 C40.68,41.7759922 40.3066704,40.6466701 39.56,39.956 C38.8133296,39.2653299 37.469343,38.92 35.528,38.92 L28.416,38.92 L28.416,51.688 L35.528,51.688 C37.5066766,51.688 38.8599964,51.3146704 39.588,50.568 C40.3160036,49.8213296 40.68,48.6826743 40.68,47.152 L40.68,43.344 Z M81,59.08 C81,60.6480078 80.7573358,62.1226598 80.272,63.504 C79.7866642,64.8853402 78.9933388,66.0986614 77.892,67.144 C76.7906612,68.1893386 75.344009,69.0199969 73.552,69.636 C71.759991,70.2520031 69.5386799,70.56 66.888,70.56 C64.2746536,70.56 62.0626757,70.2520031 60.252,69.636 C58.4413243,69.0199969 56.9853388,68.1893386 55.884,67.144 C54.7826612,66.0986614 53.9893358,64.8853402 53.504,63.504 C53.0186642,62.1226598 52.776,60.6480078 52.776,59.08 L52.776,43.624 C52.776,42.0559922 53.0186642,40.5813402 53.504,39.2 C53.9893358,37.8186598 54.7826612,36.6053386 55.884,35.56 C56.9853388,34.5146614 58.4413243,33.6840031 60.252,33.068 C62.0626757,32.4519969 64.2746536,32.144 66.888,32.144 C69.5386799,32.144 71.759991,32.4519969 73.552,33.068 C75.344009,33.6840031 76.7906612,34.5146614 77.892,35.56 C78.9933388,36.6053386 79.7866642,37.8186598 80.272,39.2 C80.7573358,40.5813402 81,42.0559922 81,43.624 L81,59.08 Z M59.832,58.688 C59.832,60.4426754 60.3546614,61.823995 61.4,62.832 C62.4453386,63.840005 64.2746536,64.344 66.888,64.344 C69.5386799,64.344 71.3773282,63.840005 72.404,62.832 C73.4306718,61.823995 73.944,60.4426754 73.944,58.688 L73.944,44.016 C73.944,42.2613246 73.4306718,40.880005 72.404,39.872 C71.3773282,38.863995 69.5386799,38.36 66.888,38.36 C64.2746536,38.36 62.4453386,38.863995 61.4,39.872 C60.3546614,40.880005 59.832,42.2613246 59.832,44.016 L59.832,58.688 Z M115.944,59.08 C115.944,60.6480078 115.701336,62.1226598 115.216,63.504 C114.730664,64.8853402 113.937339,66.0986614 112.836,67.144 C111.734661,68.1893386 110.288009,69.0199969 108.496,69.636 C106.703991,70.2520031 104.48268,70.56 101.832,70.56 C99.2186536,70.56 97.0066757,70.2520031 95.196,69.636 C93.3853243,69.0199969 91.9293388,68.1893386 90.828,67.144 C89.7266612,66.0986614 88.9333358,64.8853402 88.448,63.504 C87.9626642,62.1226598 87.72,60.6480078 87.72,59.08 L87.72,43.624 C87.72,42.0559922 87.9626642,40.5813402 88.448,39.2 C88.9333358,37.8186598 89.7266612,36.6053386 90.828,35.56 C91.9293388,34.5146614 93.3853243,33.6840031 95.196,33.068 C97.0066757,32.4519969 99.2186536,32.144 101.832,32.144 C104.48268,32.144 106.703991,32.4519969 108.496,33.068 C110.288009,33.6840031 111.734661,34.5146614 112.836,35.56 C113.937339,36.6053386 114.730664,37.8186598 115.216,39.2 C115.701336,40.5813402 115.944,42.0559922 115.944,43.624 L115.944,59.08 Z M94.776,58.688 C94.776,60.4426754 95.2986614,61.823995 96.344,62.832 C97.3893386,63.840005 99.2186536,64.344 101.832,64.344 C104.48268,64.344 106.321328,63.840005 107.348,62.832 C108.374672,61.823995 108.888,60.4426754 108.888,58.688 L108.888,44.016 C108.888,42.2613246 108.374672,40.880005 107.348,39.872 C106.321328,38.863995 104.48268,38.36 101.832,38.36 C99.2186536,38.36 97.3893386,38.863995 96.344,39.872 C95.2986614,40.880005 94.776,42.2613246 94.776,44.016 L94.776,58.688 Z M145.848,70 L137.28,57.68 L130.56,57.68 L130.56,70 L123.504,70 L123.504,32.704 L138.792,32.704 C143.122688,32.704 146.183991,33.5626581 147.976,35.28 C149.768009,36.9973419 150.664,39.4986502 150.664,42.784 L150.664,47.656 C150.664,49.8960112 150.225338,51.7813257 149.348,53.312 C148.470662,54.8426743 147.042677,55.9626631 145.064,56.672 L154.304,70 L145.848,70 Z M143.608,43.344 C143.608,41.7759922 143.23467,40.6466701 142.488,39.956 C141.74133,39.2653299 140.41601,38.92 138.512,38.92 L130.56,38.92 L130.56,51.576 L138.512,51.576 C140.453343,51.576 141.787996,51.2120036 142.516,50.484 C143.244004,49.7559964 143.608,48.6080078 143.608,47.04 L143.608,43.344 Z M182.248,70 L173.68,57.68 L166.96,57.68 L166.96,70 L159.904,70 L159.904,32.704 L175.192,32.704 C179.522688,32.704 182.583991,33.5626581 184.376,35.28 C186.168009,36.9973419 187.064,39.4986502 187.064,42.784 L187.064,47.656 C187.064,49.8960112 186.625338,51.7813257 185.748,53.312 C184.870662,54.8426743 183.442677,55.9626631 181.464,56.672 L190.704,70 L182.248,70 Z M180.008,43.344 C180.008,41.7759922 179.63467,40.6466701 178.888,39.956 C178.14133,39.2653299 176.81601,38.92 174.912,38.92 L166.96,38.92 L166.96,51.576 L174.912,51.576 C176.853343,51.576 178.187996,51.2120036 178.916,50.484 C179.644004,49.7559964 180.008,48.6080078 180.008,47.04 L180.008,43.344 Z M217.64,62.272 L203.808,62.272 L201.456,70 L194.064,70 L205.824,32.704 L215.68,32.704 L227.44,70 L220.048,70 L217.64,62.272 Z M205.544,56.168 L215.848,56.168 L210.752,38.528 L205.544,56.168 Z" id="POORRA" sketch:type="MSShapeGroup"></path>
        </g>
    </g>
</svg>