<?xml version="1.0" encoding="utf-8"?>
<!-- Generator: Adobe Illustrator 17.0.0, SVG Export Plug-In . SVG Version: 6.00 Build 0)  -->
<!DOCTYPE svg PUBLIC "-//W3C//DTD SVG 1.1//EN" "http://www.w3.org/Graphics/SVG/1.1/DTD/svg11.dtd">
<svg version="1.1" id="Layer_1" xmlns="http://www.w3.org/2000/svg" xmlns:xlink="http://www.w3.org/1999/xlink" x="0px" y="0px"
	 width="88.069px" height="88.069px" viewBox="208.418 229.135 88.069 88.069"
	 enable-background="new 208.418 229.135 88.069 88.069" xml:space="preserve">
<g>
	<path d="M281.031,297.054c0,0-0.519,0.586-1.492,1.686c-0.492,0.548-1.043,1.239-1.921,1.99c-0.418,0.381-0.867,0.791-1.346,1.228
		c-0.241,0.218-0.489,0.443-0.745,0.675c-0.263,0.218-0.55,0.411-0.836,0.626c-1.165,0.827-2.391,1.851-3.928,2.653
		c-0.755,0.42-1.516,0.91-2.356,1.321c-0.857,0.377-1.744,0.768-2.662,1.172c-3.725,1.456-8.186,2.604-13.171,2.751l-0.116,0.009
		l-0.219-0.005l-0.221-0.006l-0.444-0.012l-0.894-0.024c-0.599-0.016-1.204-0.032-1.815-0.048c-1.29-0.119-2.665-0.321-4.035-0.497
		c-1.316-0.3-2.658-0.587-4.004-0.954c-0.661-0.225-1.327-0.451-1.997-0.679c-0.67-0.233-1.357-0.44-2.001-0.762
		c-5.287-2.252-10.429-5.823-14.527-10.676c-0.958-1.26-2.03-2.465-2.846-3.863c-0.429-0.684-0.883-1.359-1.293-2.062
		c-0.371-0.726-0.742-1.455-1.115-2.185c-0.183-0.367-0.377-0.731-0.551-1.104l-0.454-1.152c-0.301-0.772-0.602-1.546-0.904-2.321
		c-0.227-0.802-0.455-1.605-0.683-2.41l-0.337-1.214c-0.098-0.408-0.155-0.825-0.233-1.239l-0.434-2.497
		c-0.116-0.837-0.142-1.686-0.215-2.532l-0.09-1.273l-0.022-0.319l-0.011-0.159l0.008-0.322l0.016-0.583l0.062-2.336l0.016-0.585
		l0.077-0.664l0.166-1.336c0.133-0.877,0.192-1.818,0.402-2.646c0.399-1.676,0.727-3.382,1.352-5.001
		c1.043-3.31,2.687-6.402,4.558-9.311l1.511-2.114c0.482-0.723,1.106-1.328,1.656-1.995c1.091-1.349,2.38-2.498,3.63-3.684
		c5.161-4.56,11.466-7.683,17.935-9.144c3.268-0.634,6.478-1.047,9.754-0.91c0.706,0.019,1.409,0.038,2.107,0.056
		c0.836,0.102,1.667,0.204,2.493,0.305c1.705,0.167,3.178,0.561,4.676,0.913c5.965,1.514,11.234,4.329,15.422,7.732
		c4.209,3.393,7.422,7.3,9.646,11.123c0.309,0.461,0.573,0.936,0.806,1.419c0.243,0.478,0.482,0.948,0.717,1.409
		c0.233,0.463,0.461,0.918,0.685,1.364c0.199,0.457,0.368,0.918,0.547,1.364c0.345,0.898,0.677,1.759,0.993,2.583
		c0.239,0.85,0.468,1.66,0.684,2.429c0.482,1.531,0.659,2.951,0.883,4.175c0.096,0.614,0.22,1.18,0.267,1.704
		c0.039,0.525,0.075,1.002,0.107,1.429c0.117,1.713,0.179,2.626,0.179,2.626c0.231,3.393-2.332,6.331-5.725,6.562
		c-3.393,0.231-6.331-2.332-6.562-5.725c-0.005-0.079-0.009-0.158-0.012-0.236l-0.015-0.601c0,0-0.017-0.65-0.048-1.869
		c-0.005-0.306-0.01-0.647-0.017-1.023c-0.011-0.376-0.093-0.777-0.139-1.217c-0.125-0.874-0.173-1.902-0.483-3.002
		c-0.124-0.558-0.256-1.145-0.393-1.762c-0.201-0.599-0.411-1.226-0.63-1.879c-0.112-0.326-0.211-0.666-0.336-1.003
		c-0.149-0.327-0.3-0.661-0.454-1.001c-0.152-0.342-0.307-0.689-0.464-1.043c-0.145-0.361-0.318-0.715-0.532-1.055
		c-1.465-2.852-3.678-5.821-6.661-8.479c-2.968-2.668-6.78-4.952-11.2-6.301c-1.109-0.313-2.258-0.689-3.306-0.825
		c-0.539-0.107-1.081-0.215-1.626-0.323c-0.697-0.052-1.397-0.104-2.102-0.156c-2.37-0.232-4.937-0.017-7.448,0.332
		c-5.019,0.891-10.044,3.06-14.3,6.463c-1.022,0.897-2.106,1.745-3.013,2.782c-0.458,0.511-0.997,0.959-1.398,1.522l-1.287,1.629
		c-1.596,2.256-3.059,4.669-4.017,7.304c-0.581,1.281-0.891,2.652-1.294,3.998c-0.214,0.68-0.254,1.312-0.399,1.97l-0.187,0.979
		l-0.095,0.494l-0.043,0.583l-0.173,2.331l-0.043,0.582l-0.005,0.073c0-0.054-0.008,0.224-0.001-0.103l0.004,0.132l0.008,0.263
		l0.028,1.053c0.029,0.701,0.007,1.408,0.071,2.105l0.264,2.082c0.048,0.346,0.073,0.697,0.139,1.039l0.237,1.018l0.466,2.036
		c0.223,0.658,0.445,1.315,0.667,1.97l0.328,0.985l0.422,0.945c0.283,0.63,0.564,1.258,0.845,1.884
		c0.318,0.607,0.678,1.191,1.011,1.787c0.623,1.223,1.497,2.272,2.252,3.392c3.287,4.294,7.561,7.586,12.057,9.766
		c0.546,0.313,1.135,0.515,1.708,0.745c0.575,0.228,1.146,0.454,1.713,0.679c1.158,0.372,2.326,0.677,3.461,1.003
		c1.135,0.188,2.214,0.418,3.347,0.59c1.18,0.085,2.337,0.169,3.471,0.251c4.436,0.079,8.471-0.756,11.896-1.905
		c0.846-0.325,1.666-0.639,2.456-0.942c0.778-0.335,1.485-0.75,2.19-1.098c1.438-0.657,2.591-1.544,3.697-2.246
		c0.27-0.183,0.548-0.349,0.792-0.533c0.233-0.193,0.459-0.381,0.679-0.563c0.441-0.364,0.855-0.704,1.24-1.021
		c0.786-0.585,1.407-1.283,1.92-1.803c1.024-1.052,1.57-1.613,1.57-1.613c0.533-0.548,1.409-0.559,1.957-0.026
		C281.491,295.663,281.516,296.505,281.031,297.054z"/>
	<rect x="208.418" y="229.135" fill="none" width="88.069" height="88.069"/>
</g>
</svg>
