<?xml version="1.0" encoding="utf-8"?>
<!-- Generator: Adobe Illustrator 17.0.0, SVG Export Plug-In . SVG Version: 6.00 Build 0)  -->
<!DOCTYPE svg PUBLIC "-//W3C//DTD SVG 1.1//EN" "http://www.w3.org/Graphics/SVG/1.1/DTD/svg11.dtd">
<svg version="1.1" id="Capa_1" xmlns:sketch="http://www.bohemiancoding.com/sketch/ns"
	 xmlns="http://www.w3.org/2000/svg" xmlns:xlink="http://www.w3.org/1999/xlink" x="0px" y="0px" width="40px" height="40px"
	 viewBox="2.5 1.5 40 40" enable-background="new 2.5 1.5 40 40" xml:space="preserve">
<g>
	<path d="M35.433,32.382c0,0-0.235,0.265-0.675,0.763c-0.223,0.248-0.472,0.561-0.869,0.9c-0.189,0.173-0.392,0.358-0.609,0.556
		c-0.109,0.099-0.221,0.201-0.337,0.306c-0.119,0.098-0.249,0.186-0.378,0.283c-0.527,0.374-1.082,0.838-1.778,1.201
		c-0.342,0.19-0.686,0.412-1.066,0.598c-0.388,0.171-0.789,0.348-1.204,0.53c-1.686,0.659-3.704,1.178-5.96,1.245l-0.053,0.004
		l-0.099-0.002l-0.1-0.003l-0.201-0.005l-0.405-0.011c-0.271-0.007-0.545-0.015-0.821-0.022c-0.584-0.054-1.206-0.145-1.826-0.225
		c-0.595-0.136-1.203-0.266-1.812-0.432c-0.299-0.102-0.6-0.204-0.904-0.307c-0.303-0.105-0.614-0.199-0.906-0.345
		c-2.392-1.019-4.72-2.635-6.574-4.831c-0.434-0.57-0.919-1.115-1.288-1.748c-0.194-0.309-0.4-0.615-0.585-0.933
		c-0.168-0.329-0.336-0.658-0.505-0.989c-0.083-0.166-0.171-0.331-0.25-0.5l-0.205-0.521c-0.136-0.349-0.272-0.699-0.409-1.05
		c-0.103-0.363-0.206-0.726-0.309-1.091l-0.153-0.549c-0.045-0.185-0.07-0.373-0.106-0.561l-0.197-1.13
		c-0.053-0.379-0.064-0.763-0.097-1.146L4.714,21.79l-0.01-0.144l-0.005-0.072l0.004-0.146l0.007-0.264l0.028-1.057l0.007-0.265
		l0.035-0.3l0.075-0.605c0.06-0.397,0.087-0.823,0.182-1.197c0.181-0.759,0.329-1.53,0.612-2.263
		c0.472-1.498,1.216-2.897,2.063-4.214l0.684-0.957c0.218-0.327,0.501-0.601,0.749-0.903c0.494-0.61,1.077-1.13,1.643-1.667
		c2.335-2.064,5.189-3.477,8.116-4.138c1.479-0.287,2.932-0.474,4.414-0.412c0.32,0.009,0.637,0.017,0.954,0.025
		c0.378,0.046,0.754,0.092,1.128,0.138c0.771,0.076,1.438,0.254,2.116,0.413c2.699,0.685,5.084,1.959,6.979,3.499
		c1.905,1.536,3.359,3.304,4.365,5.033c0.14,0.208,0.259,0.424,0.365,0.642c0.11,0.216,0.218,0.429,0.324,0.638
		c0.105,0.21,0.209,0.415,0.31,0.617c0.09,0.207,0.167,0.415,0.248,0.617c0.156,0.406,0.306,0.796,0.449,1.169
		c0.108,0.384,0.212,0.751,0.31,1.099c0.218,0.693,0.298,1.335,0.4,1.889c0.044,0.278,0.099,0.534,0.121,0.771
		c0.018,0.238,0.034,0.453,0.049,0.647c0.053,0.775,0.081,1.188,0.081,1.188c0.105,1.535-1.055,2.865-2.591,2.969
		c-1.535,0.105-2.865-1.055-2.969-2.591c-0.002-0.036-0.004-0.071-0.005-0.107l-0.007-0.272c0,0-0.008-0.294-0.022-0.846
		c-0.002-0.138-0.005-0.293-0.007-0.463c-0.005-0.17-0.042-0.352-0.063-0.551c-0.057-0.396-0.078-0.861-0.218-1.358
		c-0.056-0.252-0.116-0.518-0.178-0.797c-0.091-0.271-0.186-0.555-0.285-0.85c-0.051-0.148-0.095-0.301-0.152-0.454
		c-0.067-0.148-0.136-0.299-0.205-0.453c-0.069-0.155-0.139-0.312-0.21-0.472c-0.066-0.163-0.144-0.324-0.241-0.477
		c-0.663-1.291-1.664-2.634-3.014-3.837c-1.343-1.207-3.068-2.241-5.069-2.851c-0.502-0.142-1.022-0.312-1.496-0.373
		c-0.244-0.048-0.489-0.097-0.736-0.146c-0.315-0.023-0.632-0.047-0.951-0.071c-1.072-0.105-2.234-0.007-3.371,0.15
		c-2.271,0.403-4.545,1.385-6.471,2.925c-0.462,0.406-0.953,0.79-1.363,1.259c-0.207,0.231-0.451,0.434-0.633,0.689l-0.583,0.737
		c-0.722,1.021-1.384,2.113-1.818,3.305c-0.263,0.58-0.403,1.2-0.586,1.809c-0.097,0.308-0.115,0.594-0.181,0.892l-0.085,0.443
		l-0.043,0.223l-0.02,0.264l-0.078,1.055l-0.02,0.263L7.843,21.62c0-0.025-0.004,0.101,0-0.047l0.002,0.06l0.003,0.119l0.013,0.477
		c0.013,0.317,0.003,0.637,0.032,0.952l0.12,0.942c0.022,0.157,0.033,0.315,0.063,0.47l0.107,0.461l0.211,0.922
		c0.101,0.298,0.201,0.595,0.302,0.892l0.149,0.446l0.191,0.427c0.128,0.285,0.255,0.569,0.382,0.853
		c0.144,0.275,0.307,0.539,0.458,0.809c0.282,0.554,0.677,1.028,1.019,1.535c1.487,1.943,3.422,3.433,5.456,4.419
		c0.247,0.142,0.514,0.233,0.773,0.337c0.26,0.103,0.519,0.206,0.775,0.307c0.524,0.168,1.053,0.307,1.566,0.454
		c0.513,0.085,1.002,0.189,1.515,0.267c0.534,0.039,1.058,0.077,1.571,0.114c2.007,0.036,3.833-0.342,5.383-0.862
		c0.383-0.147,0.754-0.289,1.112-0.426c0.352-0.151,0.672-0.339,0.991-0.497c0.651-0.297,1.172-0.699,1.673-1.017
		c0.122-0.083,0.248-0.158,0.358-0.241c0.105-0.088,0.208-0.173,0.307-0.255c0.2-0.165,0.387-0.319,0.561-0.462
		c0.356-0.265,0.637-0.58,0.869-0.816c0.463-0.476,0.711-0.73,0.711-0.73c0.241-0.248,0.638-0.253,0.885-0.012
		C35.641,31.752,35.652,32.133,35.433,32.382z"/>
</g>
</svg>
